<svg xmlns="http://www.w3.org/2000/svg" version="1.1" xmlns:xlink="http://www.w3.org/1999/xlink" xmlns:svgjs="http://svgjs.dev/svgjs" width="1500" height="1500" viewBox="0 0 1500 1500"><rect width="1500" height="1500" fill="#000000"></rect><g transform="matrix(0.6666666666666666,0,0,0.6666666666666666,249.39393939393932,452.8477933489896)"><svg viewBox="0 0 396 235" data-background-color="#e12c2c" preserveAspectRatio="xMidYMid meet" height="890" width="1500" xmlns="http://www.w3.org/2000/svg" xmlns:xlink="http://www.w3.org/1999/xlink"><g id="tight-bounds" transform="matrix(1,0,0,1,0.24000000000003752,0.19230656683276948)"><svg viewBox="0 0 395.5199999999999 234.61538686633446" height="234.61538686633446" width="395.5199999999999"><g><svg viewBox="0 0 395.5199999999999 234.61538686633446" height="234.61538686633446" width="395.5199999999999"><g transform="matrix(1,0,0,1,0,145.00172138590744)"><svg viewBox="0 0 395.5199999999999 89.61366548042703" height="89.61366548042703" width="395.5199999999999"><g id="textblocktransform"><svg viewBox="0 0 395.5199999999999 89.61366548042703" height="89.61366548042703" width="395.5199999999999" id="textblock"><g><svg viewBox="0 0 395.5199999999999 89.61366548042703" height="89.61366548042703" width="395.5199999999999"><g transform="matrix(1,0,0,1,0,0)"><svg width="395.5199999999999" viewBox="2 -37.6 168.59 38.2" height="89.61366548042703" data-palette-color="#ffffff"><path d="M14.95 0.6L14.95 0.6Q11.25 0.6 8.3-1.13 5.35-2.85 3.68-5.93 2-9 2-13L2-13Q2-17.2 3.7-20.25 5.4-23.3 8.35-24.95 11.3-26.6 14.95-26.6L14.95-26.6Q18.6-26.6 21.53-24.95 24.45-23.3 26.18-20.28 27.9-17.25 27.9-13.1L27.9-13.1Q27.9-8.95 26.2-5.88 24.5-2.8 21.58-1.1 18.65 0.6 14.95 0.6ZM14.95-3.4L14.95-3.4Q18.9-3.4 21.1-6.08 23.3-8.75 23.3-13L23.3-13Q23.3-15.6 22.2-17.78 21.1-19.95 19.23-21.28 17.35-22.6 14.95-22.6L14.95-22.6Q11-22.6 8.8-20 6.6-17.4 6.6-13.1L6.6-13.1Q6.6-10.5 7.7-8.28 8.8-6.05 10.68-4.73 12.55-3.4 14.95-3.4ZM44.4 0.6L44.4 0.6Q40.7 0.6 37.92-1.13 35.15-2.85 33.65-5.93 32.15-9 32.15-13L32.15-13Q32.15-16.75 33.67-19.85 35.2-22.95 38.05-24.78 40.9-26.6 44.75-26.6L44.75-26.6Q46.95-26.6 48.62-26.2 50.3-25.8 51.85-25.05L51.85-25.05 50.5-21.25Q49.1-21.95 47.82-22.28 46.55-22.6 45-22.6L45-22.6Q41.5-22.6 39.12-20.08 36.75-17.55 36.75-13.1L36.75-13.1Q36.75-10.4 37.75-8.2 38.75-6 40.52-4.7 42.3-3.4 44.7-3.4L44.7-3.4Q46.6-3.4 47.95-3.83 49.3-4.25 50.85-5.05L50.85-5.05 52.25-1.25Q50.7-0.4 48.77 0.1 46.85 0.6 44.4 0.6ZM66.59 0.6L66.59 0.6Q62.85 0.6 60.67-1.88 58.5-4.35 58.5-8.95L58.5-8.95 58.5-21.15 54-21.15 54-25.05 58.6-25.05 59.55-33.25 63-33.25 63-25.05 70.2-25.05 70.2-21.15 63-21.15 63-8.6Q63-5.7 64.22-4.55 65.45-3.4 67.15-3.4L67.15-3.4Q68.4-3.4 69.52-3.8 70.65-4.2 71.59-4.75L71.59-4.75 72.84-1.15Q71.84-0.55 70.15 0.03 68.45 0.6 66.59 0.6ZM87.29 0.6L87.29 0.6Q83.59 0.6 80.64-1.13 77.69-2.85 76.02-5.93 74.34-9 74.34-13L74.34-13Q74.34-17.2 76.04-20.25 77.74-23.3 80.69-24.95 83.64-26.6 87.29-26.6L87.29-26.6Q90.94-26.6 93.87-24.95 96.79-23.3 98.52-20.28 100.24-17.25 100.24-13.1L100.24-13.1Q100.24-8.95 98.54-5.88 96.84-2.8 93.92-1.1 90.99 0.6 87.29 0.6ZM87.29-3.4L87.29-3.4Q91.24-3.4 93.44-6.08 95.64-8.75 95.64-13L95.64-13Q95.64-15.6 94.54-17.78 93.44-19.95 91.57-21.28 89.69-22.6 87.29-22.6L87.29-22.6Q83.34-22.6 81.14-20 78.94-17.4 78.94-13.1L78.94-13.1Q78.94-10.5 80.04-8.28 81.14-6.05 83.02-4.73 84.89-3.4 87.29-3.4ZM111.24 0L106.74 0 106.74-21.15 102.74-21.15 102.74-25.05 106.74-25.05 106.74-28.1Q106.74-32.5 109.19-35.05 111.64-37.6 115.59-37.6L115.59-37.6Q117.64-37.6 119.19-37.13 120.74-36.65 122.14-35.95L122.14-35.95 120.79-32.15Q119.74-32.7 118.54-33.15 117.34-33.6 115.89-33.6L115.89-33.6Q113.79-33.6 112.52-32.27 111.24-30.95 111.24-28.4L111.24-28.4 111.24-25.05 118.94-25.05 118.94-21.15 111.24-21.15 111.24 0ZM133.29 0.6L133.29 0.6Q127.69 0.6 124.41-2.98 121.14-6.55 121.14-13L121.14-13Q121.14-16.9 122.61-19.98 124.09-23.05 126.74-24.83 129.39-26.6 132.89-26.6L132.89-26.6Q136.64-26.6 139.11-24.98 141.59-23.35 142.84-20.6 144.09-17.85 144.09-14.55L144.09-14.55Q144.09-12.8 143.94-11.15L143.94-11.15 125.74-11.15Q126.19-7.5 128.29-5.45 130.39-3.4 133.84-3.4L133.84-3.4Q136.09-3.4 137.89-3.88 139.69-4.35 141.34-5.1L141.34-5.1 142.39-1.25Q140.59-0.45 138.34 0.08 136.09 0.6 133.29 0.6ZM125.69-14.8L125.69-14.8 139.94-14.8Q139.94-18.6 138.04-20.65 136.14-22.7 132.79-22.7L132.79-22.7Q129.89-22.7 127.99-20.68 126.09-18.65 125.69-14.8ZM170.59-2.45L167.19 0.45 158.44-10.4 149.79 0.35 146.59-2.45 155.84-13.2 146.94-23.5 150.44-26.55 158.49-16.15 166.39-26.35 169.74-23.5 161.09-13.4 170.59-2.45Z" opacity="1" transform="matrix(1,0,0,1,0,0)" fill="#ffffff" class="wordmark-text-0" data-fill-palette-color="primary" id="text-0"></path></svg></g></svg></g></svg></g></svg></g><g transform="matrix(1,0,0,1,142.5062760765856,0)"><svg viewBox="0 0 110.50744784682871 123.84608569395016" height="123.84608569395016" width="110.50744784682871"><g><svg xmlns="http://www.w3.org/2000/svg" xmlns:xlink="http://www.w3.org/1999/xlink" version="1.1" x="0" y="0" viewBox="11.359008533439736 5.885 79.06128410250986 88.60425932200339" enable-background="new 0 0 100 100" xml:space="preserve" height="123.84608569395016" width="110.50744784682871" class="icon-icon-0" data-fill-palette-color="accent" id="icon-0"><path d="M50.074 69.727S58.517 70.046 66.62 64.156C67.297 55.909 75.74 25.324 50.074 5.885 24.411 25.324 32.854 55.908 33.529 64.156 41.633 70.046 50.077 69.727 50.074 69.727" fill="#ffffff" data-fill-palette-color="accent"></path><path d="M20.212 70.665S23.406 82.481 32.582 73.415C35.433 70.254 39.117 69.782 39.061 74.788 38.965 83.448 21.586 92.04 15.498 76.837 14.827 74.024 13.695 72.034 11.964 69.69 9.117 65.856 17.07 61.144 20.212 70.665" fill="#ffffff" data-fill-palette-color="accent"></path><path d="M81.568 70.665S78.374 82.481 69.198 73.415C66.347 70.254 62.663 69.782 62.719 74.788 62.813 83.448 80.195 92.04 86.281 76.837 86.951 74.024 88.083 72.034 89.816 69.69 92.661 65.856 84.709 61.144 81.568 70.665" fill="#ffffff" data-fill-palette-color="accent"></path><path d="M32.861 89.124S43.17 86.867 43.758 77.343C43.758 74.593 46.801 72.63 48.47 76.361 50.141 81.269 48.569 92.265 34.726 94.327 26.283 95.505 28.836 89.909 32.861 89.124" fill="#ffffff" data-fill-palette-color="accent"></path><path d="M69.492 89.124S59.184 86.867 58.595 77.343C58.595 74.593 55.551 72.63 53.883 76.361 52.212 81.269 53.783 92.265 67.627 94.327 76.068 95.505 73.517 89.909 69.492 89.124" fill="#ffffff" data-fill-palette-color="accent"></path></svg></g></svg></g><g></g></svg></g><defs></defs></svg><rect width="395.5199999999999" height="234.61538686633446" fill="none" stroke="none" visibility="hidden"></rect></g></svg></g></svg>